<?xml version="1.0" encoding="UTF-8" standalone="no"?>
<!DOCTYPE svg PUBLIC "-//W3C//DTD SVG 1.1//EN"
 "http://www.w3.org/Graphics/SVG/1.1/DTD/svg11.dtd">
<!-- Generated by graphviz version 2.38.0 (20140413.2041)
 -->
<!-- Title: G Pages: 1 -->
<svg width="328pt" height="152pt"
 viewBox="0.00 0.00 328.28 152.00" xmlns="http://www.w3.org/2000/svg" xmlns:xlink="http://www.w3.org/1999/xlink">
<g id="graph0" class="graph" transform="scale(1 1) rotate(0) translate(4 148)">
<title>G</title>
<polygon fill="white" stroke="none" points="-4,4 -4,-148 324.278,-148 324.278,4 -4,4"/>
<!-- Service 1 -->
<g id="node1" class="node"><title>Service 1</title>
<ellipse fill="none" stroke="black" cx="274.132" cy="-126" rx="46.2923" ry="18"/>
<text text-anchor="middle" x="274.132" y="-122.3" font-family="Palatino" font-size="14.00">Service 1</text>
</g>
<!-- Service 2 -->
<g id="node2" class="node"><title>Service 2</title>
<ellipse fill="none" stroke="black" cx="274.132" cy="-72" rx="46.2923" ry="18"/>
<text text-anchor="middle" x="274.132" y="-68.3" font-family="Palatino" font-size="14.00">Service 2</text>
</g>
<!-- Service 3 -->
<g id="node3" class="node"><title>Service 3</title>
<ellipse fill="none" stroke="black" cx="274.132" cy="-18" rx="46.2923" ry="18"/>
<text text-anchor="middle" x="274.132" y="-14.3" font-family="Palatino" font-size="14.00">Service 3</text>
</g>
<!-- Client -->
<g id="node4" class="node"><title>Client</title>
<ellipse fill="lightblue" stroke="lightblue" cx="35.0969" cy="-72" rx="35.194" ry="18"/>
<text text-anchor="middle" x="35.0969" y="-68.3" font-family="Palatino" font-size="14.00">Client</text>
</g>
<!-- Proloxy -->
<g id="node5" class="node"><title>Proloxy</title>
<ellipse fill="lightblue" stroke="lightblue" cx="149.09" cy="-72" rx="42.7926" ry="18"/>
<text text-anchor="middle" x="149.09" y="-68.3" font-family="Palatino Linotype,serif" font-weight="bold" font-size="14.00">Proloxy</text>
</g>
<!-- Client&#45;&gt;Proloxy -->
<g id="edge1" class="edge"><title>Client&#45;&gt;Proloxy</title>
<path fill="none" stroke="black" d="M80.422,-72C85.5959,-72 90.9089,-72 96.1735,-72"/>
<polygon fill="black" stroke="black" points="80.3071,-68.5001 70.307,-72 80.307,-75.5001 80.3071,-68.5001"/>
<polygon fill="black" stroke="black" points="96.1888,-75.5001 106.189,-72 96.1887,-68.5001 96.1888,-75.5001"/>
</g>
<!-- Proloxy&#45;&gt;Service 1 -->
<g id="edge2" class="edge"><title>Proloxy&#45;&gt;Service 1</title>
<path fill="none" stroke="black" d="M188.867,-89.0183C202.961,-95.2038 218.909,-102.203 233.109,-108.435"/>
<polygon fill="black" stroke="black" points="190.125,-85.7482 179.562,-84.9343 187.312,-92.1581 190.125,-85.7482"/>
<polygon fill="black" stroke="black" points="232.052,-111.793 242.616,-112.607 234.866,-105.384 232.052,-111.793"/>
</g>
<!-- Proloxy&#45;&gt;Service 2 -->
<g id="edge3" class="edge"><title>Proloxy&#45;&gt;Service 2</title>
<path fill="none" stroke="black" d="M202.323,-72C207.385,-72 212.533,-72 217.626,-72"/>
<polygon fill="black" stroke="black" points="202.09,-68.5001 192.09,-72 202.09,-75.5001 202.09,-68.5001"/>
<polygon fill="black" stroke="black" points="217.956,-75.5001 227.956,-72 217.956,-68.5001 217.956,-75.5001"/>
</g>
<!-- Proloxy&#45;&gt;Service 3 -->
<g id="edge4" class="edge"><title>Proloxy&#45;&gt;Service 3</title>
<path fill="none" stroke="black" d="M188.867,-54.9817C202.961,-48.7962 218.909,-41.7972 233.109,-35.5652"/>
<polygon fill="black" stroke="black" points="187.312,-51.8419 179.562,-59.0657 190.125,-58.2518 187.312,-51.8419"/>
<polygon fill="black" stroke="black" points="234.866,-38.6165 242.616,-31.3928 232.052,-32.2066 234.866,-38.6165"/>
</g>
</g>
</svg>
