<?xml version="1.0" encoding="UTF-8" standalone="no"?>
<!DOCTYPE svg PUBLIC "-//W3C//DTD SVG 1.1//EN"
 "http://www.w3.org/Graphics/SVG/1.1/DTD/svg11.dtd">
<!-- Generated by graphviz version 2.38.0 (20140413.2041)
 -->
<!-- Title: G Pages: 1 -->
<svg width="345pt" height="260pt"
 viewBox="0.00 0.00 345.00 260.00" xmlns="http://www.w3.org/2000/svg" xmlns:xlink="http://www.w3.org/1999/xlink">
<g id="graph0" class="graph" transform="scale(1 1) rotate(0) translate(4 256)">
<title>G</title>
<polygon fill="white" stroke="none" points="-4,4 -4,-256 341,-256 341,4 -4,4"/>
<!-- 1 -->
<g id="node1" class="node"><title>1</title>
<ellipse fill="lightblue" stroke="lightblue" cx="179" cy="-234" rx="27" ry="18"/>
<text text-anchor="middle" x="179" y="-230.3" font-family="Palatino Linotype,serif" font-weight="roman" font-size="14.00">fur?</text>
</g>
<!-- 2 -->
<g id="node2" class="node"><title>2</title>
<ellipse fill="lightblue" stroke="lightblue" cx="129" cy="-162" rx="46.5926" ry="18"/>
<text text-anchor="middle" x="129" y="-158.3" font-family="Palatino Linotype,serif" font-weight="roman" font-size="14.00">feathers?</text>
</g>
<!-- 1&#45;&gt;2 -->
<g id="edge1" class="edge"><title>1&#45;&gt;2</title>
<path fill="none" stroke="black" stroke-dasharray="1,5" d="M167.903,-217.465C161.673,-208.742 153.753,-197.654 146.687,-187.762"/>
<polygon fill="black" stroke="black" points="149.423,-185.57 140.762,-179.467 143.727,-189.639 149.423,-185.57"/>
</g>
<!-- 4 -->
<g id="node4" class="node"><title>4</title>
<ellipse fill="lightblue" stroke="lightblue" cx="229" cy="-162" rx="35.194" ry="18"/>
<text text-anchor="middle" x="229" y="-158.3" font-family="Palatino Linotype,serif" font-weight="roman" font-size="14.00">woof?</text>
</g>
<!-- 1&#45;&gt;4 -->
<g id="edge6" class="edge"><title>1&#45;&gt;4</title>
<path fill="none" stroke="black" d="M190.097,-217.465C196.327,-208.742 204.247,-197.654 211.313,-187.762"/>
<polygon fill="black" stroke="black" points="214.273,-189.639 217.238,-179.467 208.577,-185.57 214.273,-189.639"/>
</g>
<!-- 3 -->
<g id="node3" class="node"><title>3</title>
<ellipse fill="lightblue" stroke="lightblue" cx="45" cy="-90" rx="42.7926" ry="18"/>
<text text-anchor="middle" x="45" y="-86.3" font-family="Palatino Linotype,serif" font-weight="roman" font-size="14.00">quacks?</text>
</g>
<!-- 2&#45;&gt;3 -->
<g id="edge9" class="edge"><title>2&#45;&gt;3</title>
<path fill="none" stroke="black" d="M110.358,-145.465C98.9387,-135.949 84.1422,-123.619 71.5164,-113.097"/>
<polygon fill="black" stroke="black" points="73.5131,-110.205 63.5902,-106.492 69.0318,-115.583 73.5131,-110.205"/>
</g>
<!-- 9 -->
<g id="node9" class="node"><title>9</title>
<polygon fill="tomato" stroke="tomato" points="160,-108 106,-108 106,-72 160,-72 160,-108"/>
<text text-anchor="middle" x="133" y="-86.3" font-family="Palatino Linotype,serif" font-weight="roman" font-size="14.00">false</text>
</g>
<!-- 2&#45;&gt;9 -->
<g id="edge3" class="edge"><title>2&#45;&gt;9</title>
<path fill="none" stroke="black" stroke-dasharray="1,5" d="M129.989,-143.697C130.43,-135.983 130.959,-126.712 131.451,-118.112"/>
<polygon fill="black" stroke="black" points="134.946,-118.288 132.023,-108.104 127.958,-117.888 134.946,-118.288"/>
</g>
<!-- 8 -->
<g id="node8" class="node"><title>8</title>
<polygon fill="lightgreen" stroke="lightgreen" points="54,-36 0,-36 0,-0 54,-0 54,-36"/>
<text text-anchor="middle" x="27" y="-14.3" font-family="Palatino Linotype,serif" font-weight="bold" font-size="14.00">duck</text>
</g>
<!-- 3&#45;&gt;8 -->
<g id="edge10" class="edge"><title>3&#45;&gt;8</title>
<path fill="none" stroke="black" d="M40.6427,-72.055C38.6385,-64.2609 36.2113,-54.8219 33.9631,-46.0789"/>
<polygon fill="black" stroke="black" points="37.3224,-45.0886 31.4422,-36.2753 30.543,-46.8319 37.3224,-45.0886"/>
</g>
<!-- 10 -->
<g id="node10" class="node"><title>10</title>
<polygon fill="tomato" stroke="tomato" points="126,-36 72,-36 72,-0 126,-0 126,-36"/>
<text text-anchor="middle" x="99" y="-14.3" font-family="Palatino Linotype,serif" font-weight="roman" font-size="14.00">false</text>
</g>
<!-- 3&#45;&gt;10 -->
<g id="edge4" class="edge"><title>3&#45;&gt;10</title>
<path fill="none" stroke="black" stroke-dasharray="1,5" d="M57.5244,-72.7646C64.079,-64.268 72.2494,-53.6766 79.6013,-44.1465"/>
<polygon fill="black" stroke="black" points="82.4533,-46.1796 85.7901,-36.1239 76.9108,-41.9039 82.4533,-46.1796"/>
</g>
<!-- 5 -->
<g id="node5" class="node"><title>5</title>
<ellipse fill="lightblue" stroke="lightblue" cx="225" cy="-90" rx="39.7935" ry="18"/>
<text text-anchor="middle" x="225" y="-86.3" font-family="Palatino Linotype,serif" font-weight="roman" font-size="14.00">meow?</text>
</g>
<!-- 4&#45;&gt;5 -->
<g id="edge2" class="edge"><title>4&#45;&gt;5</title>
<path fill="none" stroke="black" stroke-dasharray="1,5" d="M228.011,-143.697C227.57,-135.983 227.041,-126.712 226.549,-118.112"/>
<polygon fill="black" stroke="black" points="230.042,-117.888 225.977,-108.104 223.054,-118.288 230.042,-117.888"/>
</g>
<!-- 7 -->
<g id="node7" class="node"><title>7</title>
<polygon fill="lightgreen" stroke="lightgreen" points="337,-108 283,-108 283,-72 337,-72 337,-108"/>
<text text-anchor="middle" x="310" y="-86.3" font-family="Palatino Linotype,serif" font-weight="bold" font-size="14.00">dog</text>
</g>
<!-- 4&#45;&gt;7 -->
<g id="edge7" class="edge"><title>4&#45;&gt;7</title>
<path fill="none" stroke="black" d="M246.178,-146.155C256.768,-137.003 270.586,-125.061 282.655,-114.631"/>
<polygon fill="black" stroke="black" points="285.005,-117.227 290.282,-108.04 280.428,-111.931 285.005,-117.227"/>
</g>
<!-- 6 -->
<g id="node6" class="node"><title>6</title>
<polygon fill="lightgreen" stroke="lightgreen" points="225,-36 171,-36 171,-0 225,-0 225,-36"/>
<text text-anchor="middle" x="198" y="-14.3" font-family="Palatino Linotype,serif" font-weight="bold" font-size="14.00">cat</text>
</g>
<!-- 5&#45;&gt;6 -->
<g id="edge8" class="edge"><title>5&#45;&gt;6</title>
<path fill="none" stroke="black" d="M218.464,-72.055C215.425,-64.1762 211.738,-54.6165 208.335,-45.794"/>
<polygon fill="black" stroke="black" points="211.528,-44.3457 204.663,-36.2753 204.997,-46.8649 211.528,-44.3457"/>
</g>
<!-- 11 -->
<g id="node11" class="node"><title>11</title>
<polygon fill="tomato" stroke="tomato" points="297,-36 243,-36 243,-0 297,-0 297,-36"/>
<text text-anchor="middle" x="270" y="-14.3" font-family="Palatino Linotype,serif" font-weight="roman" font-size="14.00">false</text>
</g>
<!-- 5&#45;&gt;11 -->
<g id="edge5" class="edge"><title>5&#45;&gt;11</title>
<path fill="none" stroke="black" stroke-dasharray="1,5" d="M235.664,-72.411C240.943,-64.2 247.436,-54.0991 253.35,-44.8996"/>
<polygon fill="black" stroke="black" points="256.321,-46.7512 258.784,-36.4468 250.432,-42.9659 256.321,-46.7512"/>
</g>
</g>
</svg>
