<?xml version="1.0" encoding="UTF-8" standalone="no"?>
<!DOCTYPE svg PUBLIC "-//W3C//DTD SVG 1.1//EN"
 "http://www.w3.org/Graphics/SVG/1.1/DTD/svg11.dtd">
<!-- Generated by graphviz version 2.38.0 (20140413.2041)
 -->
<!-- Title: K_6 Pages: 1 -->
<svg width="303pt" height="252pt"
 viewBox="0.00 0.00 302.64 252.40" xmlns="http://www.w3.org/2000/svg" xmlns:xlink="http://www.w3.org/1999/xlink">
<g id="graph0" class="graph" transform="scale(1 1) rotate(0) translate(4 248.402)">
<title>K_6</title>
<polygon fill="white" stroke="none" points="-4,4 -4,-248.402 298.642,-248.402 298.642,4 -4,4"/>
<!-- 1 -->
<g id="node1" class="node"><title>1</title>
<ellipse fill="blue" stroke="black" cx="207.482" cy="-18" rx="27" ry="18"/>
<text text-anchor="middle" x="207.482" y="-14.3" font-family="Times,serif" font-size="14.00" fill="white">1</text>
</g>
<!-- 2 -->
<g id="node2" class="node"><title>2</title>
<ellipse fill="blue" stroke="black" cx="267.642" cy="-122.201" rx="27" ry="18"/>
<text text-anchor="middle" x="267.642" y="-118.501" font-family="Times,serif" font-size="14.00" fill="white">2</text>
</g>
<!-- 1&#45;&#45;2 -->
<g id="edge1" class="edge"><title>1&#45;&#45;2</title>
<path fill="none" stroke="black" d="M217.416,-35.2067C228.63,-54.6291 246.756,-86.025 257.893,-105.315"/>
</g>
<!-- 3 -->
<g id="node3" class="node"><title>3</title>
<ellipse fill="blue" stroke="black" cx="27" cy="-122.201" rx="27" ry="18"/>
<text text-anchor="middle" x="27" y="-118.501" font-family="Times,serif" font-size="14.00" fill="white">3</text>
</g>
<!-- 1&#45;&#45;3 -->
<g id="edge2" class="edge"><title>1&#45;&#45;3</title>
<path fill="none" stroke="black" d="M186.778,-29.9532C151.964,-50.0532 82.1136,-90.3813 47.4621,-110.387"/>
</g>
<!-- 4 -->
<g id="node4" class="node"><title>4</title>
<ellipse fill="blue" stroke="black" cx="87.1606" cy="-226.402" rx="27" ry="18"/>
<text text-anchor="middle" x="87.1606" y="-222.702" font-family="Times,serif" font-size="14.00" fill="white">4</text>
</g>
<!-- 1&#45;&#45;4 -->
<g id="edge3" class="edge"><title>1&#45;&#45;4</title>
<path fill="none" stroke="black" d="M197.635,-35.0544C175.017,-74.2309 119.561,-170.283 96.9743,-209.405"/>
</g>
<!-- 5 -->
<g id="node5" class="node"><title>5</title>
<ellipse fill="blue" stroke="black" cx="207.482" cy="-226.402" rx="27" ry="18"/>
<text text-anchor="middle" x="207.482" y="-222.702" font-family="Times,serif" font-size="14.00" fill="white">5</text>
</g>
<!-- 1&#45;&#45;5 -->
<g id="edge4" class="edge"><title>1&#45;&#45;5</title>
<path fill="none" stroke="black" d="M207.482,-36.1298C207.482,-75.5434 207.482,-168.656 207.482,-208.166"/>
</g>
<!-- 6 -->
<g id="node6" class="node"><title>6</title>
<ellipse fill="blue" stroke="black" cx="87.1606" cy="-18" rx="27" ry="18"/>
<text text-anchor="middle" x="87.1606" y="-14.3" font-family="Times,serif" font-size="14.00" fill="white">6</text>
</g>
<!-- 1&#45;&#45;6 -->
<g id="edge5" class="edge"><title>1&#45;&#45;6</title>
<path fill="none" stroke="black" d="M180.479,-18C160.802,-18 134.242,-18 114.489,-18"/>
</g>
<!-- 2&#45;&#45;3 -->
<g id="edge6" class="edge"><title>2&#45;&#45;3</title>
<path fill="none" stroke="black" d="M240.505,-122.201C194.165,-122.201 100.31,-122.201 54.0378,-122.201"/>
</g>
<!-- 2&#45;&#45;4 -->
<g id="edge7" class="edge"><title>2&#45;&#45;4</title>
<path fill="none" stroke="black" d="M246.939,-134.154C212.124,-154.254 142.274,-194.582 107.623,-214.589"/>
</g>
<!-- 2&#45;&#45;5 -->
<g id="edge8" class="edge"><title>2&#45;&#45;5</title>
<path fill="none" stroke="black" d="M257.708,-139.408C246.494,-158.83 228.368,-190.226 217.231,-209.516"/>
</g>
<!-- 2&#45;&#45;6 -->
<g id="edge9" class="edge"><title>2&#45;&#45;6</title>
<path fill="none" stroke="black" d="M246.939,-110.248C212.124,-90.1479 142.274,-49.8199 107.623,-29.8138"/>
</g>
<!-- 3&#45;&#45;4 -->
<g id="edge10" class="edge"><title>3&#45;&#45;4</title>
<path fill="none" stroke="black" d="M36.9343,-139.408C48.1478,-158.83 66.2742,-190.226 77.4111,-209.516"/>
</g>
<!-- 3&#45;&#45;5 -->
<g id="edge11" class="edge"><title>3&#45;&#45;5</title>
<path fill="none" stroke="black" d="M47.7035,-134.154C82.5178,-154.254 152.368,-194.582 187.02,-214.589"/>
</g>
<!-- 3&#45;&#45;6 -->
<g id="edge12" class="edge"><title>3&#45;&#45;6</title>
<path fill="none" stroke="black" d="M36.9343,-104.994C48.1478,-85.572 66.2742,-54.1762 77.4111,-34.8865"/>
</g>
<!-- 4&#45;&#45;5 -->
<g id="edge13" class="edge"><title>4&#45;&#45;5</title>
<path fill="none" stroke="black" d="M114.163,-226.402C133.84,-226.402 160.4,-226.402 180.153,-226.402"/>
</g>
<!-- 4&#45;&#45;6 -->
<g id="edge14" class="edge"><title>4&#45;&#45;6</title>
<path fill="none" stroke="black" d="M87.1606,-208.273C87.1606,-168.859 87.1606,-75.7464 87.1606,-36.2363"/>
</g>
<!-- 5&#45;&#45;6 -->
<g id="edge15" class="edge"><title>5&#45;&#45;6</title>
<path fill="none" stroke="black" d="M197.635,-209.348C175.017,-170.171 119.561,-74.1194 96.9743,-34.9978"/>
</g>
</g>
</svg>
