<?xml version="1.0" encoding="UTF-8" standalone="no"?>
<!-- Created with Inkscape (http://www.inkscape.org/) -->

<svg
   xmlns:dc="http://purl.org/dc/elements/1.1/"
   xmlns:cc="http://creativecommons.org/ns#"
   xmlns:rdf="http://www.w3.org/1999/02/22-rdf-syntax-ns#"
   xmlns:svg="http://www.w3.org/2000/svg"
   xmlns="http://www.w3.org/2000/svg"
   xmlns:sodipodi="http://sodipodi.sourceforge.net/DTD/sodipodi-0.dtd"
   xmlns:inkscape="http://www.inkscape.org/namespaces/inkscape"
   width="400.35999"
   height="300.09"
   id="svg2"
   version="1.1"
   inkscape:version="0.48.5 r10040"
   sodipodi:docname="map_solution1.svg">
  <defs
     id="defs4" />
  <sodipodi:namedview
     id="base"
     pagecolor="#ffffff"
     bordercolor="#666666"
     borderopacity="1.0"
     inkscape:pageopacity="0.0"
     inkscape:pageshadow="2"
     inkscape:zoom="2.8"
     inkscape:cx="246.35796"
     inkscape:cy="138.35858"
     inkscape:document-units="px"
     inkscape:current-layer="layer1"
     showgrid="false"
     inkscape:window-width="1920"
     inkscape:window-height="1178"
     inkscape:window-x="0"
     inkscape:window-y="0"
     inkscape:window-maximized="1"
     width="400.36px"
     showborder="true"
     borderlayer="false"
     inkscape:showpageshadow="true" />
  <metadata
     id="metadata7">
    <rdf:RDF>
      <cc:Work
         rdf:about="">
        <dc:format>image/svg+xml</dc:format>
        <dc:type
           rdf:resource="http://purl.org/dc/dcmitype/StillImage" />
        <dc:title></dc:title>
      </cc:Work>
    </rdf:RDF>
  </metadata>
  <g
     inkscape:label="regions"
     inkscape:groupmode="layer"
     id="layer1"
     transform="translate(0,-752.27218)"
     style="display:inline">
    <path
       style="fill:none;stroke:#000000;stroke-width:1px;stroke-linecap:butt;stroke-linejoin:miter;stroke-opacity:1"
       d="m 92.154118,937.58994 c 13.629132,2.32643 51.505982,17.84037 63.836652,10.25209 31.32697,-19.27857 -0.52348,-39.30912 2.75482,-65.6664 3.08043,-24.76637 32.34774,-52.76601 12.89894,-73.19673"
       id="path3022"
       inkscape:connector-curvature="0"
       sodipodi:nodetypes="cssc" />
    <path
       style="fill:none;stroke:#000000;stroke-width:1px;stroke-linecap:butt;stroke-linejoin:miter;stroke-opacity:1"
       d="m 55.925169,834.5424 c 20.642393,-0.006 52.359951,5.60103 73.000351,5.76479 16.40697,0.39146 35.93678,-4.61654 39.76996,-19.26999 7.14381,-17.03073 1.42459,-19.62367 -12.12184,-28.28427 -51.15669,-23.48007 -176.998223,15.82074 -100.648471,41.78947 z"
       id="path3014"
       inkscape:connector-curvature="0"
       sodipodi:nodetypes="ccccc" />
    <path
       style="fill:none;stroke:#000000;stroke-width:1px;stroke-linecap:butt;stroke-linejoin:miter;stroke-opacity:1"
       d="m 49.33287,832.01585 c 0.03861,2.72138 19.18345,15.12853 14.397536,34.92363 -12.980858,23.2822 17.020731,21.17164 37.284844,22.78814 24.94814,2.49382 22.62537,-29.72783 23.59065,-49.26274"
       id="path3016"
       inkscape:connector-curvature="0"
       sodipodi:nodetypes="cccc" />
    <path
       style="fill:none;stroke:#000000;stroke-width:1px;stroke-linecap:butt;stroke-linejoin:miter;stroke-opacity:1"
       d="m 35.773758,808.02781 c -5.768998,3.06847 -10.655602,6.07143 -13.560664,11.74509 -7.797164,24.72416 -3.59997,38.25014 -1.763251,62.07136 2.871841,23.06013 -7.088663,44.90879 19.445519,48.99684 17.166153,2.07192 44.300751,21.29576 52.059085,7.00834 2.874318,-12.15564 6.157902,-36.68493 5.969069,-48.06055"
       id="path3020"
       inkscape:connector-curvature="0"
       sodipodi:nodetypes="cccccc" />
    <path
       style="fill:none;stroke:#000000;stroke-width:1px;stroke-linecap:butt;stroke-linejoin:miter;stroke-opacity:1"
       d="m 157.53389,793.45063 c 4.51382,-6.92902 3.52022,-7.39337 14.16893,-13.51598 15.08979,-6.49075 84.19413,18.97637 96.72177,29.33442 35.80437,30.18124 -33.62909,18.73113 -25.16802,66.16995 13.91595,35.38367 -57.88236,43.37406 -78.52646,34.42166"
       id="path3024"
       inkscape:connector-curvature="0"
       sodipodi:nodetypes="ccccc" />
    <path
       style="fill:none;stroke:#000000;stroke-width:1px;stroke-linecap:butt;stroke-linejoin:miter;stroke-opacity:1"
       d="m 258.67629,803.32352 c 11.20267,2.75013 44.42427,-23.05141 66.12067,-8.72998 50.4974,37.85069 -17.01413,59.84479 -5.35012,123.36286 -1.81677,16.6288 -49.57891,-3.20201 -47.91674,13.00707 -2.18118,13.18715 54.58863,35.683 57.16817,47.58626 2.26243,12.7415 -28.93755,46.48997 -40.28327,49.27067 -14.50094,1.8352 -19.19532,-48.60659 -33.59272,-50.42429 -46.56339,-9.4197 -108.67215,56.90479 -148.71929,40.58349 -13.308183,-17.8418 -25.198941,-11.759 -39.936003,-9.1144 -14.09458,1.136 -27.601496,-3.3258 -40.594996,-8.277 -7.60771,-9.57374 -4.588658,-23.33248 -5.092039,-34.76276 1.366071,-10.48615 3.983732,-32.20158 4.233896,-42.75217"
       id="path3026"
       inkscape:connector-curvature="0"
       sodipodi:nodetypes="cccccccccccc" />
    <text
       xml:space="preserve"
       style="font-size:40px;font-style:normal;font-weight:normal;line-height:125%;letter-spacing:0px;word-spacing:0px;fill:#000000;fill-opacity:1;stroke:none;font-family:Sans"
       x="98.994949"
       y="61.188919"
       id="text3037"
       sodipodi:linespacing="125%"
       transform="translate(0,752.27218)"><tspan
         sodipodi:role="line"
         id="tspan3039"
         x="98.994949"
         y="61.188919" /></text>
    <text
       xml:space="preserve"
       style="font-size:40px;font-style:normal;font-weight:normal;line-height:125%;letter-spacing:0px;word-spacing:0px;fill:#000000;fill-opacity:1;stroke:none;font-family:Sans"
       x="87.378197"
       y="102.60517"
       id="text3041"
       sodipodi:linespacing="125%"
       transform="translate(0,752.27218)"><tspan
         sodipodi:role="line"
         id="tspan3043"
         x="87.378197"
         y="102.60517" /></text>
    <text
       xml:space="preserve"
       style="font-size:40px;font-style:normal;font-weight:normal;line-height:125%;letter-spacing:0px;word-spacing:0px;fill:#000000;fill-opacity:1;stroke:none;font-family:Sans"
       x="39.39595"
       y="150.08234"
       id="text3045"
       sodipodi:linespacing="125%"
       transform="translate(0,752.27218)"><tspan
         sodipodi:role="line"
         id="tspan3047"
         x="39.39595"
         y="150.08234" /></text>
    <path
       style="fill:#ee0000"
       d="M 119.17783,87.215134 C 116.54622,87.048066 105.61765,86.017305 94.892118,84.924559 73.5025,82.745323 63.779766,81.927005 59.140231,81.915491 56.478266,81.908884 55.663058,81.737484 52.533088,80.526309 44.595695,77.454852 40.360506,75.099245 36.726483,71.734695 33.598368,68.838542 32.531237,66.787747 32.542332,63.69367 c 0.0068,-1.887686 0.206958,-2.688241 1.071428,-4.284636 5.505487,-10.166837 28.974188,-19.892473 57.670247,-23.899054 9.660633,-1.348831 13.963233,-1.630562 24.642853,-1.613597 11.43396,0.01816 16.82141,0.483145 24.94391,2.152867 9.15353,1.881669 14.26611,3.886371 20.45126,8.01918 7.67481,5.128168 9.97283,8.127884 9.95324,12.992432 -0.0113,2.811418 -0.39857,4.428027 -2.35886,9.847094 -2.60126,7.190985 -4.42951,9.881428 -8.84019,13.009149 -8.92802,6.331086 -21.31434,8.541336 -40.89839,7.298029 l 0,0 z"
       id="path3469"
       inkscape:connector-curvature="0"
       transform="translate(0,752.27218)" />
    <path
       style="fill:#ee0000"
       d="m 285.39115,274.62622 c -3.83882,-1.677 -7.14335,-7.08895 -12.1848,-19.95546 -1.48051,-3.77847 -3.42118,-8.71816 -4.31261,-10.97709 -2.32998,-5.90433 -5.64603,-12.24904 -7.67812,-14.69084 -3.07749,-3.69798 -4.4495,-4.27408 -11.81034,-4.95907 -7.92546,-0.73754 -17.32784,0.61989 -27.75542,4.00706 -10.96779,3.56266 -19.18487,7.22831 -44.83014,19.9988 -26.50513,13.19867 -35.81235,16.8947 -48.03571,19.07569 -4.45495,0.79489 -12.80407,0.80818 -16.25,0.0259 -5.12544,-1.1636 -6.047,-1.64183 -8.20306,-4.25677 -5.220175,-6.33119 -12.142797,-9.91502 -19.15214,-9.91502 -2.343164,0 -7.79521,0.83754 -13.963496,2.14505 -11.625707,2.46435 -22.708204,0.98491 -40.502167,-5.40676 L 25.678,247.90903 24.5735,246.0692 c -3.168627,-5.27814 -3.771843,-8.92719 -3.697958,-22.37015 0.05248,-9.54882 0.172792,-11.49621 1.290755,-20.89286 1.584286,-13.31616 2.275616,-20.31779 2.565964,-25.98752 0.128253,-2.50447 0.309493,-4.55357 0.402753,-4.55357 0.09326,0 0.771695,0.54399 1.507633,1.20886 2.901765,2.62157 6.965967,4.32858 12.855646,5.39951 4.87088,0.88567 10.064607,2.41119 16.607143,4.87788 16.413082,6.18814 21.720435,7.64268 26.794539,7.34334 3.792728,-0.22375 6.15985,-1.24882 8.157664,-3.53262 l 1.524786,-1.74306 3.011503,0.71541 c 1.656329,0.39348 6.386512,1.69221 10.511512,2.88606 21.91272,6.34196 29.68028,8.07384 37.88982,8.44803 7.55902,0.34454 10.91884,-0.64491 16.37083,-4.82112 4.76093,-3.64687 7.44584,-7.15309 8.98741,-11.73664 0.84847,-2.52275 0.92247,-3.16172 0.75809,-6.54565 -0.19861,-4.08833 -0.95582,-7.31439 -2.9328,-12.49495 -0.69733,-1.82733 -1.20802,-3.3823 -1.13484,-3.45547 0.0732,-0.0732 1.54145,0.20146 3.26285,0.6103 9.41653,2.23642 23.31148,2.4243 35.72721,0.48309 12.88156,-2.01405 24.02514,-6.08261 30.94822,-11.29931 8.51972,-6.4198 11.1844,-14.40721 8.09111,-24.25322 -0.72253,-2.29983 -0.82505,-3.35841 -0.82505,-8.51901 0,-4.52699 0.14661,-6.43093 0.63252,-8.21429 0.97376,-3.57385 3.13487,-7.756335 5.56999,-10.779817 3.50717,-4.354557 7.21521,-7.085432 20.27831,-14.934468 4.9212,-2.956925 8.4651,-6.307489 9.06213,-8.567733 0.52059,-1.970885 0.25081,-4.163536 -0.75861,-6.165552 -2.10705,-4.178971 -8.25001,-10.148646 -13.8493,-13.45862 l -3.28501,-1.941906 3.29106,-0.664878 c 2.01867,-0.407823 7.65089,-2.301983 14.56784,-4.899277 16.97204,-6.372947 22.0525,-7.653368 30.38393,-7.657612 7.70887,-0.0039 12.22158,1.534676 17.89924,6.102735 8.38853,6.749129 13.75218,13.925617 15.5639,20.824272 0.88673,3.376468 0.79783,9.291843 -0.20098,13.373129 -1.16723,4.769435 -2.77076,8.490757 -9.16521,21.269727 -3.19445,6.38393 -6.52607,13.21429 -7.40362,15.17857 -4.30559,9.63759 -6.88767,19.05073 -7.78835,28.39286 -0.48736,5.05515 -0.2271,14.55855 0.523,19.09732 0.58752,3.55502 0.26123,4.90672 -1.6169,6.69818 -2.31149,2.20482 -4.2476,2.59736 -12.81108,2.59736 -4.02679,0 -11.10519,-0.145 -15.72978,-0.32223 -9.17551,-0.35161 -11.90008,-0.10033 -14.45574,1.33323 -1.96126,1.10014 -2.66113,2.49416 -2.73745,5.45248 -0.0835,3.23659 0.91402,5.20367 4.4133,8.70295 4.3996,4.3996 10.67346,8.79202 26.53628,18.57844 19.31666,11.91722 25.61197,16.9792 26.15546,21.03124 0.95977,7.15562 -10.6022,24.60927 -25.19852,38.03903 -6.58214,6.05608 -12.97296,10.23977 -15.59069,10.20631 -0.58929,-0.008 -1.55358,-0.22433 -2.14286,-0.48176 l 0,0 z"
       id="path3471"
       inkscape:connector-curvature="0"
       transform="translate(0,752.27218)" />
    <path
       style="fill:#008000"
       d="m 180.98917,160.28605 c -5.17547,-0.32125 -9.63941,-1.03224 -13.32089,-2.12168 l -2.35891,-0.69806 -1.08806,-2.59474 c -4.45106,-10.61464 -5.94686,-18.40301 -4.89496,-25.48721 1.00321,-6.75624 2.57121,-11.08373 9.36912,-25.85753 8.01163,-17.411569 9.76186,-22.784048 9.83152,-30.178569 0.0565,-5.998518 -1.34214,-10.260121 -4.92062,-14.992973 -1.11107,-1.469481 -1.6149,-2.482353 -1.6149,-3.246528 0,-0.610884 -0.49755,-2.106394 -1.10568,-3.323357 -1.28961,-2.580753 -4.02396,-5.10111 -9.15349,-8.437142 -1.81219,-1.178571 -3.29879,-2.282548 -3.30357,-2.453282 -0.018,-0.643322 2.7042,-4.755994 4.23683,-6.40097 2.20632,-2.368047 8.96205,-6.534048 11.47075,-7.073569 11.8866,-2.556337 53.23267,9.069493 82.0575,23.07321 8.21919,3.99306 11.62112,6.265115 15.97679,10.67046 4.93179,4.988044 6.73731,8.510333 5.91938,11.547865 -0.85707,3.18295 -3.23477,5.199693 -12.9475,10.981986 -7.21008,4.292382 -10.4391,6.622707 -13.96945,10.081482 -5.32537,5.2174 -8.05946,10.945267 -8.81897,18.475567 -0.3755,3.72287 0.17993,10.18278 1.10768,12.88296 0.9422,2.74221 1.27745,7.99498 0.67529,10.58037 -1.10945,4.76343 -5.30174,10.2315 -10.35984,13.5125 -11.97499,7.76771 -33.42342,12.26121 -52.78802,11.05921 l 0,0 z"
       id="path3473"
       inkscape:connector-curvature="0"
       transform="translate(0,752.27218)" />
    <path
       style="fill:#008000"
       d="m 91.812903,136.52617 c -14.533064,-0.92273 -20.564497,-1.91382 -25.032303,-4.11332 -6.019177,-2.96323 -7.280624,-7.75921 -3.910195,-14.86645 2.640692,-5.56843 2.655601,-12.21422 0.04297,-19.15534 -1.689145,-4.487645 -4.357643,-8.448936 -9.602368,-14.254375 -1.560272,-1.727082 -2.77671,-3.195983 -2.703196,-3.264225 0.07351,-0.06824 1.336403,0.340359 2.806421,0.908005 2.334012,0.901275 3.148775,1.03269 6.428572,1.03688 4.905884,0.0063 12.097329,0.611183 35.720097,3.004631 10.705357,1.084662 21.525497,2.081764 24.044767,2.215781 l 4.58047,0.243668 -0.23404,7.354847 c -0.44003,13.827728 -1.5812,23.053698 -3.50818,28.362468 -2.54839,7.02073 -6.86326,11.43904 -12.42294,12.72076 -2.00355,0.46189 -6.7894,0.40481 -16.210077,-0.19333 z"
       id="path3475"
       inkscape:connector-curvature="0"
       transform="translate(0,752.27218)" />
    <path
       style="fill:#0000ff"
       d="m 78.160807,190.05525 c -2.403115,-0.3223 -8.113325,-2.07047 -14.578872,-4.4633 -11.848397,-4.38498 -17.772835,-6.28726 -22.563985,-7.2451 -7.902111,-1.57977 -11.252602,-2.9969 -14.307006,-6.05131 -2.258743,-2.25874 -3.487097,-4.58122 -4.498352,-8.50515 -0.7032,-2.72859 -0.765429,-3.97515 -0.833622,-16.69871 -0.05222,-9.74247 -0.246967,-15.46751 -0.668197,-19.64286 -2.895991,-28.705768 -3.03991,-31.24895 -2.233934,-39.475671 0.83978,-8.571759 2.931577,-17.927714 4.765969,-21.316693 0.501699,-0.926873 1.74361,-2.536804 2.759801,-3.577625 1.864247,-1.90943 6.830395,-5.541143 7.145835,-5.225704 0.09371,0.09371 -0.186007,0.884831 -0.6216,1.758041 -1.140863,2.28703 -1.106497,5.949814 0.07856,8.37337 1.73394,3.54607 6.333682,7.271215 12.876829,10.428423 1.866072,0.900419 3.534776,1.879352 3.708232,2.175406 0.173456,0.296053 1.630218,2.000947 3.237248,3.788653 3.730017,4.149373 6.257445,7.473054 7.831338,10.298553 4.204086,7.547307 4.973861,16.185407 1.972229,22.131607 -1.361982,2.69807 -2.226672,6.4355 -1.981279,8.56365 0.496593,4.3067 3.6656,7.33801 9.575114,9.15908 4.279175,1.31866 11.941025,2.29851 21.371404,2.73312 7.186164,0.33119 6.49615,-0.19426 6.237257,4.74967 -0.647843,12.37149 -4.052986,37.20707 -5.919657,43.1753 -0.525404,1.67985 -3.12975,3.89944 -5.348504,4.55834 -1.743007,0.51762 -5.397153,0.65863 -8.00481,0.30891 z"
       id="path3485"
       inkscape:connector-curvature="0"
       transform="translate(0,752.27218)" />
    <path
       style="fill:#ffff00"
       d="m 137.9651,196.54011 c -6.92833,-1.11162 -13.44782,-2.73566 -30.71429,-7.65112 -6.08928,-1.73351 -11.71757,-3.25745 -12.507302,-3.38653 -2.365995,-0.38672 -2.343329,-0.30399 -1.376298,-5.02352 2.143194,-10.45971 4.282689,-27.24587 4.710999,-36.96181 l 0.244033,-5.53571 4.406868,-0.0642 c 8.8911,-0.12948 13.52768,-2.99199 17.19591,-10.61632 3.06789,-6.37657 4.1302,-13.45531 4.9328,-32.870174 l 0.25014,-6.050674 3.75,0.09077 c 7.08056,0.171394 16.29653,-1.129845 22.23032,-3.138787 7.70238,-2.607718 13.70429,-7.086959 16.30981,-12.172066 1.09536,-2.137772 3.7054,-9.690736 4.31832,-12.496389 l 0.58437,-2.67496 1.16892,1.603532 c 4.9444,6.782759 5.59013,14.940444 2.04041,25.776794 -1.17532,3.587921 -4.81249,12.03243 -8.97037,20.826741 -4.47063,9.45578 -6.48223,14.96889 -7.71933,21.15601 -0.62961,3.14891 -0.7316,4.58665 -0.564,7.95113 0.32011,6.426 1.49886,10.68202 6.23161,22.5 3.33024,8.31581 4.31489,11.56064 4.73369,15.59948 0.5136,4.95294 -0.64414,9.52185 -3.28701,12.97195 -1.58073,2.06354 -5.21281,5.46075 -7.61014,7.11802 -4.29726,2.97069 -5.58467,3.34902 -11.78803,3.46413 -3.42356,0.0635 -6.5173,-0.0867 -8.57143,-0.41632 l 0,0 z"
       id="path3487"
       inkscape:connector-curvature="0"
       transform="translate(0,752.27218)" />
  </g>
  <g
     inkscape:groupmode="layer"
     id="layer3"
     inkscape:label="labels"
     style="display:inline">
    <text
       xml:space="preserve"
       style="font-size:40px;font-style:normal;font-weight:normal;line-height:125%;letter-spacing:0px;word-spacing:0px;fill:#000000;fill-opacity:1;stroke:none;display:inline;font-family:Sans"
       x="219.18665"
       y="193.84735"
       id="text3057"
       sodipodi:linespacing="125%"><tspan
         sodipodi:role="line"
         id="tspan3059"
         x="219.18665"
         y="193.84735"
         style="font-size:30px">E</tspan></text>
    <text
       xml:space="preserve"
       style="font-size:40px;font-style:normal;font-weight:normal;line-height:0%;letter-spacing:0px;word-spacing:0px;fill:#000000;fill-opacity:1;stroke:none;display:inline;font-family:Sans"
       x="102.00896"
       y="70.608757"
       id="text3061"
       sodipodi:linespacing="0%"><tspan
         sodipodi:role="line"
         id="tspan3063"
         x="102.00896"
         y="70.608757"
         style="font-size:30px">A</tspan></text>
    <text
       xml:space="preserve"
       style="font-size:30px;font-style:normal;font-weight:normal;line-height:125%;letter-spacing:0px;word-spacing:0px;fill:#000000;fill-opacity:1;stroke:none;display:inline;font-family:Sans"
       x="84.331299"
       y="117.5808"
       id="text3065"
       sodipodi:linespacing="125%"><tspan
         sodipodi:role="line"
         id="tspan3067"
         x="84.331299"
         y="117.5808">B</tspan></text>
    <text
       xml:space="preserve"
       style="font-size:30px;font-style:normal;font-weight:normal;line-height:125%;letter-spacing:0px;word-spacing:0px;fill:#000000;fill-opacity:1;stroke:none;display:inline;font-family:Sans"
       x="33.823673"
       y="152.93614"
       id="text3069"
       sodipodi:linespacing="125%"><tspan
         sodipodi:role="line"
         id="tspan3071"
         x="33.823673"
         y="152.93614">C</tspan></text>
    <text
       xml:space="preserve"
       style="font-size:30px;font-style:normal;font-weight:normal;line-height:125%;letter-spacing:0px;word-spacing:0px;fill:#000000;fill-opacity:1;stroke:none;display:inline;font-family:Sans"
       x="126.75771"
       y="164.04784"
       id="text3073"
       sodipodi:linespacing="125%"><tspan
         sodipodi:role="line"
         id="tspan3075"
         x="126.75771"
         y="164.04784">D</tspan></text>
    <text
       xml:space="preserve"
       style="font-size:30px;font-style:normal;font-weight:normal;line-height:125%;letter-spacing:0px;word-spacing:0px;fill:#000000;fill-opacity:1;stroke:none;display:inline;font-family:Sans"
       x="199.48869"
       y="103.94381"
       id="text3077"
       sodipodi:linespacing="125%"><tspan
         sodipodi:role="line"
         id="tspan3079"
         x="199.48869"
         y="103.94381">F</tspan></text>
  </g>
</svg>
