<?xml version="1.0" encoding="UTF-8" standalone="no"?>
<!DOCTYPE svg PUBLIC "-//W3C//DTD SVG 1.1//EN"
 "http://www.w3.org/Graphics/SVG/1.1/DTD/svg11.dtd">
<!-- Generated by graphviz version 2.38.0 (20140413.2041)
 -->
<!-- Title: G Pages: 1 -->
<svg width="142pt" height="188pt"
 viewBox="0.00 0.00 141.84 188.00" xmlns="http://www.w3.org/2000/svg" xmlns:xlink="http://www.w3.org/1999/xlink">
<g id="graph0" class="graph" transform="scale(1 1) rotate(0) translate(4 184)">
<title>G</title>
<polygon fill="white" stroke="none" points="-4,4 -4,-184 137.845,-184 137.845,4 -4,4"/>
<!-- 7 -->
<g id="node1" class="node"><title>7</title>
<ellipse fill="none" stroke="black" cx="78.5473" cy="-162" rx="27" ry="18"/>
<text text-anchor="middle" x="78.5473" y="-158.3" font-family="Palatino Linotype,serif" font-weight="roman" font-size="14.00">X</text>
</g>
<!-- 3 -->
<g id="node2" class="node"><title>3</title>
<ellipse fill="none" stroke="black" cx="51.5473" cy="-90" rx="27" ry="18"/>
<text text-anchor="middle" x="51.5473" y="-86.3" font-family="Palatino Linotype,serif" font-weight="roman" font-size="14.00">Y</text>
</g>
<!-- 7&#45;&gt;3 -->
<g id="edge1" class="edge"><title>7&#45;&gt;3</title>
<path fill="none" stroke="black" stroke-dasharray="1,5" d="M72.1487,-144.411C69.0337,-136.335 65.2136,-126.431 61.7127,-117.355"/>
<polygon fill="black" stroke="black" points="64.9518,-116.027 58.0875,-107.956 58.4208,-118.546 64.9518,-116.027"/>
</g>
<!-- true -->
<g id="node4" class="node"><title>true</title>
<ellipse fill="none" stroke="black" cx="106.547" cy="-18" rx="27.0966" ry="18"/>
<text text-anchor="middle" x="106.547" y="-14.3" font-family="Palatino Linotype,serif" font-weight="bold" font-size="14.00">true</text>
</g>
<!-- 7&#45;&gt;true -->
<g id="edge3" class="edge"><title>7&#45;&gt;true</title>
<path fill="none" stroke="black" d="M81.9247,-143.871C86.7178,-119.564 95.5408,-74.8187 101.221,-46.0132"/>
<polygon fill="black" stroke="black" points="104.657,-46.6775 103.158,-36.1893 97.7893,-45.3232 104.657,-46.6775"/>
</g>
<!-- false -->
<g id="node3" class="node"><title>false</title>
<ellipse fill="none" stroke="black" cx="30.5473" cy="-18" rx="30.5947" ry="18"/>
<text text-anchor="middle" x="30.5473" y="-14.3" font-family="Palatino Linotype,serif" font-weight="bold" font-size="14.00">false</text>
</g>
<!-- 3&#45;&gt;false -->
<g id="edge2" class="edge"><title>3&#45;&gt;false</title>
<path fill="none" stroke="black" stroke-dasharray="1,5" d="M46.4638,-72.055C44.0649,-64.0586 41.1465,-54.3308 38.4671,-45.3995"/>
<polygon fill="black" stroke="black" points="41.8099,-44.3615 35.584,-35.789 35.1051,-46.373 41.8099,-44.3615"/>
</g>
<!-- 3&#45;&gt;true -->
<g id="edge4" class="edge"><title>3&#45;&gt;true</title>
<path fill="none" stroke="black" d="M63.4815,-73.811C70.6611,-64.6733 79.9514,-52.8493 88.0644,-42.5237"/>
<polygon fill="black" stroke="black" points="90.8294,-44.6696 94.2556,-34.644 85.3252,-40.3448 90.8294,-44.6696"/>
</g>
</g>
</svg>
