<?xml version="1.0" encoding="UTF-8" standalone="no"?>
<!DOCTYPE svg PUBLIC "-//W3C//DTD SVG 1.1//EN"
 "http://www.w3.org/Graphics/SVG/1.1/DTD/svg11.dtd">
<!-- Generated by graphviz version 2.38.0 (20140413.2041)
 -->
<!-- Title: %3 Pages: 1 -->
<svg width="562pt" height="544pt"
 viewBox="0.00 0.00 562.00 544.00" xmlns="http://www.w3.org/2000/svg" xmlns:xlink="http://www.w3.org/1999/xlink">
<g id="graph0" class="graph" transform="scale(1 1) rotate(0) translate(-69 622)">
<title>%3</title>
<polygon fill="white" stroke="none" points="69,-78 69,-622 631,-622 631,-78 69,-78"/>
<!-- n1 -->
<g id="node1" class="node"><title>n1</title>
<ellipse fill="blue" stroke="black" cx="100" cy="-100" rx="27" ry="18"/>
<text text-anchor="middle" x="100" y="-96.3" font-family="Times,serif" font-size="14.00" fill="white">1</text>
</g>
<!-- n9 -->
<g id="node9" class="node"><title>n9</title>
<ellipse fill="blue" stroke="black" cx="300" cy="-200" rx="27" ry="18"/>
<text text-anchor="middle" x="300" y="-196.3" font-family="Times,serif" font-size="14.00" fill="white">9</text>
</g>
<!-- n1&#45;&#45;n9 -->
<g id="edge2" class="edge"><title>n1&#45;&#45;n9</title>
<path fill="none" stroke="black" d="M121.784,-110.892C160.256,-130.128 239.79,-169.895 278.243,-189.121"/>
</g>
<!-- n14 -->
<g id="node14" class="node"><title>n14</title>
<ellipse fill="blue" stroke="black" cx="200" cy="-300" rx="27" ry="18"/>
<text text-anchor="middle" x="200" y="-296.3" font-family="Times,serif" font-size="14.00" fill="white">14</text>
</g>
<!-- n1&#45;&#45;n14 -->
<g id="edge1" class="edge"><title>n1&#45;&#45;n14</title>
<path fill="none" stroke="black" d="M108.699,-117.399C127.659,-155.318 172.516,-245.031 191.392,-282.784"/>
</g>
<!-- n2 -->
<g id="node2" class="node"><title>n2</title>
<ellipse fill="blue" stroke="black" cx="200" cy="-100" rx="27" ry="18"/>
<text text-anchor="middle" x="200" y="-96.3" font-family="Times,serif" font-size="14.00" fill="white">2</text>
</g>
<!-- n10 -->
<g id="node10" class="node"><title>n10</title>
<ellipse fill="blue" stroke="black" cx="400" cy="-200" rx="27" ry="18"/>
<text text-anchor="middle" x="400" y="-196.3" font-family="Times,serif" font-size="14.00" fill="white">10</text>
</g>
<!-- n2&#45;&#45;n10 -->
<g id="edge5" class="edge"><title>n2&#45;&#45;n10</title>
<path fill="none" stroke="black" d="M221.784,-110.892C260.256,-130.128 339.79,-169.895 378.243,-189.121"/>
</g>
<!-- n13 -->
<g id="node13" class="node"><title>n13</title>
<ellipse fill="blue" stroke="black" cx="100" cy="-300" rx="27" ry="18"/>
<text text-anchor="middle" x="100" y="-296.3" font-family="Times,serif" font-size="14.00" fill="white">13</text>
</g>
<!-- n2&#45;&#45;n13 -->
<g id="edge3" class="edge"><title>n2&#45;&#45;n13</title>
<path fill="none" stroke="black" d="M191.301,-117.399C172.341,-155.318 127.484,-245.031 108.608,-282.784"/>
</g>
<!-- n15 -->
<g id="node15" class="node"><title>n15</title>
<ellipse fill="blue" stroke="black" cx="300" cy="-300" rx="27" ry="18"/>
<text text-anchor="middle" x="300" y="-296.3" font-family="Times,serif" font-size="14.00" fill="white">15</text>
</g>
<!-- n2&#45;&#45;n15 -->
<g id="edge4" class="edge"><title>n2&#45;&#45;n15</title>
<path fill="none" stroke="black" d="M208.699,-117.399C227.659,-155.318 272.516,-245.031 291.392,-282.784"/>
</g>
<!-- n3 -->
<g id="node3" class="node"><title>n3</title>
<ellipse fill="blue" stroke="black" cx="300" cy="-100" rx="27" ry="18"/>
<text text-anchor="middle" x="300" y="-96.3" font-family="Times,serif" font-size="14.00" fill="white">3</text>
</g>
<!-- n7 -->
<g id="node7" class="node"><title>n7</title>
<ellipse fill="blue" stroke="black" cx="100" cy="-200" rx="27" ry="18"/>
<text text-anchor="middle" x="100" y="-196.3" font-family="Times,serif" font-size="14.00" fill="white">7</text>
</g>
<!-- n3&#45;&#45;n7 -->
<g id="edge6" class="edge"><title>n3&#45;&#45;n7</title>
<path fill="none" stroke="black" d="M278.216,-110.892C239.744,-130.128 160.21,-169.895 121.757,-189.121"/>
</g>
<!-- n11 -->
<g id="node11" class="node"><title>n11</title>
<ellipse fill="blue" stroke="black" cx="500" cy="-200" rx="27" ry="18"/>
<text text-anchor="middle" x="500" y="-196.3" font-family="Times,serif" font-size="14.00" fill="white">11</text>
</g>
<!-- n3&#45;&#45;n11 -->
<g id="edge9" class="edge"><title>n3&#45;&#45;n11</title>
<path fill="none" stroke="black" d="M321.784,-110.892C360.256,-130.128 439.79,-169.895 478.243,-189.121"/>
</g>
<!-- n3&#45;&#45;n14 -->
<g id="edge7" class="edge"><title>n3&#45;&#45;n14</title>
<path fill="none" stroke="black" d="M291.301,-117.399C272.341,-155.318 227.484,-245.031 208.608,-282.784"/>
</g>
<!-- n16 -->
<g id="node16" class="node"><title>n16</title>
<ellipse fill="blue" stroke="black" cx="400" cy="-300" rx="27" ry="18"/>
<text text-anchor="middle" x="400" y="-296.3" font-family="Times,serif" font-size="14.00" fill="white">16</text>
</g>
<!-- n3&#45;&#45;n16 -->
<g id="edge8" class="edge"><title>n3&#45;&#45;n16</title>
<path fill="none" stroke="black" d="M308.699,-117.399C327.659,-155.318 372.516,-245.031 391.392,-282.784"/>
</g>
<!-- n4 -->
<g id="node4" class="node"><title>n4</title>
<ellipse fill="blue" stroke="black" cx="400" cy="-100" rx="27" ry="18"/>
<text text-anchor="middle" x="400" y="-96.3" font-family="Times,serif" font-size="14.00" fill="white">4</text>
</g>
<!-- n8 -->
<g id="node8" class="node"><title>n8</title>
<ellipse fill="blue" stroke="black" cx="200" cy="-200" rx="27" ry="18"/>
<text text-anchor="middle" x="200" y="-196.3" font-family="Times,serif" font-size="14.00" fill="white">8</text>
</g>
<!-- n4&#45;&#45;n8 -->
<g id="edge10" class="edge"><title>n4&#45;&#45;n8</title>
<path fill="none" stroke="black" d="M378.216,-110.892C339.744,-130.128 260.21,-169.895 221.757,-189.121"/>
</g>
<!-- n12 -->
<g id="node12" class="node"><title>n12</title>
<ellipse fill="blue" stroke="black" cx="600" cy="-200" rx="27" ry="18"/>
<text text-anchor="middle" x="600" y="-196.3" font-family="Times,serif" font-size="14.00" fill="white">12</text>
</g>
<!-- n4&#45;&#45;n12 -->
<g id="edge13" class="edge"><title>n4&#45;&#45;n12</title>
<path fill="none" stroke="black" d="M421.784,-110.892C460.256,-130.128 539.79,-169.895 578.243,-189.121"/>
</g>
<!-- n4&#45;&#45;n15 -->
<g id="edge11" class="edge"><title>n4&#45;&#45;n15</title>
<path fill="none" stroke="black" d="M391.301,-117.399C372.341,-155.318 327.484,-245.031 308.608,-282.784"/>
</g>
<!-- n17 -->
<g id="node17" class="node"><title>n17</title>
<ellipse fill="blue" stroke="black" cx="500" cy="-300" rx="27" ry="18"/>
<text text-anchor="middle" x="500" y="-296.3" font-family="Times,serif" font-size="14.00" fill="white">17</text>
</g>
<!-- n4&#45;&#45;n17 -->
<g id="edge12" class="edge"><title>n4&#45;&#45;n17</title>
<path fill="none" stroke="black" d="M408.699,-117.399C427.659,-155.318 472.516,-245.031 491.392,-282.784"/>
</g>
<!-- n5 -->
<g id="node5" class="node"><title>n5</title>
<ellipse fill="blue" stroke="black" cx="500" cy="-100" rx="27" ry="18"/>
<text text-anchor="middle" x="500" y="-96.3" font-family="Times,serif" font-size="14.00" fill="white">5</text>
</g>
<!-- n5&#45;&#45;n9 -->
<g id="edge14" class="edge"><title>n5&#45;&#45;n9</title>
<path fill="none" stroke="black" d="M478.216,-110.892C439.744,-130.128 360.21,-169.895 321.757,-189.121"/>
</g>
<!-- n5&#45;&#45;n16 -->
<g id="edge15" class="edge"><title>n5&#45;&#45;n16</title>
<path fill="none" stroke="black" d="M491.301,-117.399C472.341,-155.318 427.484,-245.031 408.608,-282.784"/>
</g>
<!-- n18 -->
<g id="node18" class="node"><title>n18</title>
<ellipse fill="blue" stroke="black" cx="600" cy="-300" rx="27" ry="18"/>
<text text-anchor="middle" x="600" y="-296.3" font-family="Times,serif" font-size="14.00" fill="white">18</text>
</g>
<!-- n5&#45;&#45;n18 -->
<g id="edge16" class="edge"><title>n5&#45;&#45;n18</title>
<path fill="none" stroke="black" d="M508.699,-117.399C527.659,-155.318 572.516,-245.031 591.392,-282.784"/>
</g>
<!-- n6 -->
<g id="node6" class="node"><title>n6</title>
<ellipse fill="blue" stroke="black" cx="600" cy="-100" rx="27" ry="18"/>
<text text-anchor="middle" x="600" y="-96.3" font-family="Times,serif" font-size="14.00" fill="white">6</text>
</g>
<!-- n6&#45;&#45;n10 -->
<g id="edge17" class="edge"><title>n6&#45;&#45;n10</title>
<path fill="none" stroke="black" d="M578.216,-110.892C539.744,-130.128 460.21,-169.895 421.757,-189.121"/>
</g>
<!-- n6&#45;&#45;n17 -->
<g id="edge18" class="edge"><title>n6&#45;&#45;n17</title>
<path fill="none" stroke="black" d="M591.301,-117.399C572.341,-155.318 527.484,-245.031 508.608,-282.784"/>
</g>
<!-- n7&#45;&#45;n15 -->
<g id="edge20" class="edge"><title>n7&#45;&#45;n15</title>
<path fill="none" stroke="black" d="M121.784,-210.892C160.256,-230.128 239.79,-269.895 278.243,-289.121"/>
</g>
<!-- n20 -->
<g id="node20" class="node"><title>n20</title>
<ellipse fill="blue" stroke="black" cx="200" cy="-400" rx="27" ry="18"/>
<text text-anchor="middle" x="200" y="-396.3" font-family="Times,serif" font-size="14.00" fill="white">20</text>
</g>
<!-- n7&#45;&#45;n20 -->
<g id="edge19" class="edge"><title>n7&#45;&#45;n20</title>
<path fill="none" stroke="black" d="M108.699,-217.399C127.659,-255.318 172.516,-345.031 191.392,-382.784"/>
</g>
<!-- n8&#45;&#45;n16 -->
<g id="edge23" class="edge"><title>n8&#45;&#45;n16</title>
<path fill="none" stroke="black" d="M221.784,-210.892C260.256,-230.128 339.79,-269.895 378.243,-289.121"/>
</g>
<!-- n19 -->
<g id="node19" class="node"><title>n19</title>
<ellipse fill="blue" stroke="black" cx="100" cy="-400" rx="27" ry="18"/>
<text text-anchor="middle" x="100" y="-396.3" font-family="Times,serif" font-size="14.00" fill="white">19</text>
</g>
<!-- n8&#45;&#45;n19 -->
<g id="edge21" class="edge"><title>n8&#45;&#45;n19</title>
<path fill="none" stroke="black" d="M191.301,-217.399C172.341,-255.318 127.484,-345.031 108.608,-382.784"/>
</g>
<!-- n21 -->
<g id="node21" class="node"><title>n21</title>
<ellipse fill="blue" stroke="black" cx="300" cy="-400" rx="27" ry="18"/>
<text text-anchor="middle" x="300" y="-396.3" font-family="Times,serif" font-size="14.00" fill="white">21</text>
</g>
<!-- n8&#45;&#45;n21 -->
<g id="edge22" class="edge"><title>n8&#45;&#45;n21</title>
<path fill="none" stroke="black" d="M208.699,-217.399C227.659,-255.318 272.516,-345.031 291.392,-382.784"/>
</g>
<!-- n9&#45;&#45;n13 -->
<g id="edge24" class="edge"><title>n9&#45;&#45;n13</title>
<path fill="none" stroke="black" d="M278.216,-210.892C239.744,-230.128 160.21,-269.895 121.757,-289.121"/>
</g>
<!-- n9&#45;&#45;n17 -->
<g id="edge27" class="edge"><title>n9&#45;&#45;n17</title>
<path fill="none" stroke="black" d="M321.784,-210.892C360.256,-230.128 439.79,-269.895 478.243,-289.121"/>
</g>
<!-- n9&#45;&#45;n20 -->
<g id="edge25" class="edge"><title>n9&#45;&#45;n20</title>
<path fill="none" stroke="black" d="M291.301,-217.399C272.341,-255.318 227.484,-345.031 208.608,-382.784"/>
</g>
<!-- n22 -->
<g id="node22" class="node"><title>n22</title>
<ellipse fill="blue" stroke="black" cx="400" cy="-400" rx="27" ry="18"/>
<text text-anchor="middle" x="400" y="-396.3" font-family="Times,serif" font-size="14.00" fill="white">22</text>
</g>
<!-- n9&#45;&#45;n22 -->
<g id="edge26" class="edge"><title>n9&#45;&#45;n22</title>
<path fill="none" stroke="black" d="M308.699,-217.399C327.659,-255.318 372.516,-345.031 391.392,-382.784"/>
</g>
<!-- n10&#45;&#45;n14 -->
<g id="edge28" class="edge"><title>n10&#45;&#45;n14</title>
<path fill="none" stroke="black" d="M378.216,-210.892C339.744,-230.128 260.21,-269.895 221.757,-289.121"/>
</g>
<!-- n10&#45;&#45;n18 -->
<g id="edge31" class="edge"><title>n10&#45;&#45;n18</title>
<path fill="none" stroke="black" d="M421.784,-210.892C460.256,-230.128 539.79,-269.895 578.243,-289.121"/>
</g>
<!-- n10&#45;&#45;n21 -->
<g id="edge29" class="edge"><title>n10&#45;&#45;n21</title>
<path fill="none" stroke="black" d="M391.301,-217.399C372.341,-255.318 327.484,-345.031 308.608,-382.784"/>
</g>
<!-- n23 -->
<g id="node23" class="node"><title>n23</title>
<ellipse fill="blue" stroke="black" cx="500" cy="-400" rx="27" ry="18"/>
<text text-anchor="middle" x="500" y="-396.3" font-family="Times,serif" font-size="14.00" fill="white">23</text>
</g>
<!-- n10&#45;&#45;n23 -->
<g id="edge30" class="edge"><title>n10&#45;&#45;n23</title>
<path fill="none" stroke="black" d="M408.699,-217.399C427.659,-255.318 472.516,-345.031 491.392,-382.784"/>
</g>
<!-- n11&#45;&#45;n15 -->
<g id="edge32" class="edge"><title>n11&#45;&#45;n15</title>
<path fill="none" stroke="black" d="M478.216,-210.892C439.744,-230.128 360.21,-269.895 321.757,-289.121"/>
</g>
<!-- n11&#45;&#45;n22 -->
<g id="edge33" class="edge"><title>n11&#45;&#45;n22</title>
<path fill="none" stroke="black" d="M491.301,-217.399C472.341,-255.318 427.484,-345.031 408.608,-382.784"/>
</g>
<!-- n24 -->
<g id="node24" class="node"><title>n24</title>
<ellipse fill="blue" stroke="black" cx="600" cy="-400" rx="27" ry="18"/>
<text text-anchor="middle" x="600" y="-396.3" font-family="Times,serif" font-size="14.00" fill="white">24</text>
</g>
<!-- n11&#45;&#45;n24 -->
<g id="edge34" class="edge"><title>n11&#45;&#45;n24</title>
<path fill="none" stroke="black" d="M508.699,-217.399C527.659,-255.318 572.516,-345.031 591.392,-382.784"/>
</g>
<!-- n12&#45;&#45;n16 -->
<g id="edge35" class="edge"><title>n12&#45;&#45;n16</title>
<path fill="none" stroke="black" d="M578.216,-210.892C539.744,-230.128 460.21,-269.895 421.757,-289.121"/>
</g>
<!-- n12&#45;&#45;n23 -->
<g id="edge36" class="edge"><title>n12&#45;&#45;n23</title>
<path fill="none" stroke="black" d="M591.301,-217.399C572.341,-255.318 527.484,-345.031 508.608,-382.784"/>
</g>
<!-- n13&#45;&#45;n21 -->
<g id="edge38" class="edge"><title>n13&#45;&#45;n21</title>
<path fill="none" stroke="black" d="M121.784,-310.892C160.256,-330.128 239.79,-369.895 278.243,-389.121"/>
</g>
<!-- n26 -->
<g id="node26" class="node"><title>n26</title>
<ellipse fill="blue" stroke="black" cx="200" cy="-500" rx="27" ry="18"/>
<text text-anchor="middle" x="200" y="-496.3" font-family="Times,serif" font-size="14.00" fill="white">26</text>
</g>
<!-- n13&#45;&#45;n26 -->
<g id="edge37" class="edge"><title>n13&#45;&#45;n26</title>
<path fill="none" stroke="black" d="M108.699,-317.399C127.659,-355.318 172.516,-445.031 191.392,-482.784"/>
</g>
<!-- n14&#45;&#45;n22 -->
<g id="edge41" class="edge"><title>n14&#45;&#45;n22</title>
<path fill="none" stroke="black" d="M221.784,-310.892C260.256,-330.128 339.79,-369.895 378.243,-389.121"/>
</g>
<!-- n25 -->
<g id="node25" class="node"><title>n25</title>
<ellipse fill="blue" stroke="black" cx="100" cy="-500" rx="27" ry="18"/>
<text text-anchor="middle" x="100" y="-496.3" font-family="Times,serif" font-size="14.00" fill="white">25</text>
</g>
<!-- n14&#45;&#45;n25 -->
<g id="edge39" class="edge"><title>n14&#45;&#45;n25</title>
<path fill="none" stroke="black" d="M191.301,-317.399C172.341,-355.318 127.484,-445.031 108.608,-482.784"/>
</g>
<!-- n27 -->
<g id="node27" class="node"><title>n27</title>
<ellipse fill="blue" stroke="black" cx="300" cy="-500" rx="27" ry="18"/>
<text text-anchor="middle" x="300" y="-496.3" font-family="Times,serif" font-size="14.00" fill="white">27</text>
</g>
<!-- n14&#45;&#45;n27 -->
<g id="edge40" class="edge"><title>n14&#45;&#45;n27</title>
<path fill="none" stroke="black" d="M208.699,-317.399C227.659,-355.318 272.516,-445.031 291.392,-482.784"/>
</g>
<!-- n15&#45;&#45;n19 -->
<g id="edge42" class="edge"><title>n15&#45;&#45;n19</title>
<path fill="none" stroke="black" d="M278.216,-310.892C239.744,-330.128 160.21,-369.895 121.757,-389.121"/>
</g>
<!-- n15&#45;&#45;n23 -->
<g id="edge45" class="edge"><title>n15&#45;&#45;n23</title>
<path fill="none" stroke="black" d="M321.784,-310.892C360.256,-330.128 439.79,-369.895 478.243,-389.121"/>
</g>
<!-- n15&#45;&#45;n26 -->
<g id="edge43" class="edge"><title>n15&#45;&#45;n26</title>
<path fill="none" stroke="black" d="M291.301,-317.399C272.341,-355.318 227.484,-445.031 208.608,-482.784"/>
</g>
<!-- n28 -->
<g id="node28" class="node"><title>n28</title>
<ellipse fill="blue" stroke="black" cx="400" cy="-500" rx="27" ry="18"/>
<text text-anchor="middle" x="400" y="-496.3" font-family="Times,serif" font-size="14.00" fill="white">28</text>
</g>
<!-- n15&#45;&#45;n28 -->
<g id="edge44" class="edge"><title>n15&#45;&#45;n28</title>
<path fill="none" stroke="black" d="M308.699,-317.399C327.659,-355.318 372.516,-445.031 391.392,-482.784"/>
</g>
<!-- n16&#45;&#45;n20 -->
<g id="edge46" class="edge"><title>n16&#45;&#45;n20</title>
<path fill="none" stroke="black" d="M378.216,-310.892C339.744,-330.128 260.21,-369.895 221.757,-389.121"/>
</g>
<!-- n16&#45;&#45;n24 -->
<g id="edge49" class="edge"><title>n16&#45;&#45;n24</title>
<path fill="none" stroke="black" d="M421.784,-310.892C460.256,-330.128 539.79,-369.895 578.243,-389.121"/>
</g>
<!-- n16&#45;&#45;n27 -->
<g id="edge47" class="edge"><title>n16&#45;&#45;n27</title>
<path fill="none" stroke="black" d="M391.301,-317.399C372.341,-355.318 327.484,-445.031 308.608,-482.784"/>
</g>
<!-- n29 -->
<g id="node29" class="node"><title>n29</title>
<ellipse fill="blue" stroke="black" cx="500" cy="-500" rx="27" ry="18"/>
<text text-anchor="middle" x="500" y="-496.3" font-family="Times,serif" font-size="14.00" fill="white">29</text>
</g>
<!-- n16&#45;&#45;n29 -->
<g id="edge48" class="edge"><title>n16&#45;&#45;n29</title>
<path fill="none" stroke="black" d="M408.699,-317.399C427.659,-355.318 472.516,-445.031 491.392,-482.784"/>
</g>
<!-- n17&#45;&#45;n21 -->
<g id="edge50" class="edge"><title>n17&#45;&#45;n21</title>
<path fill="none" stroke="black" d="M478.216,-310.892C439.744,-330.128 360.21,-369.895 321.757,-389.121"/>
</g>
<!-- n17&#45;&#45;n28 -->
<g id="edge51" class="edge"><title>n17&#45;&#45;n28</title>
<path fill="none" stroke="black" d="M491.301,-317.399C472.341,-355.318 427.484,-445.031 408.608,-482.784"/>
</g>
<!-- n30 -->
<g id="node30" class="node"><title>n30</title>
<ellipse fill="blue" stroke="black" cx="600" cy="-500" rx="27" ry="18"/>
<text text-anchor="middle" x="600" y="-496.3" font-family="Times,serif" font-size="14.00" fill="white">30</text>
</g>
<!-- n17&#45;&#45;n30 -->
<g id="edge52" class="edge"><title>n17&#45;&#45;n30</title>
<path fill="none" stroke="black" d="M508.699,-317.399C527.659,-355.318 572.516,-445.031 591.392,-482.784"/>
</g>
<!-- n18&#45;&#45;n22 -->
<g id="edge53" class="edge"><title>n18&#45;&#45;n22</title>
<path fill="none" stroke="black" d="M578.216,-310.892C539.744,-330.128 460.21,-369.895 421.757,-389.121"/>
</g>
<!-- n18&#45;&#45;n29 -->
<g id="edge54" class="edge"><title>n18&#45;&#45;n29</title>
<path fill="none" stroke="black" d="M591.301,-317.399C572.341,-355.318 527.484,-445.031 508.608,-482.784"/>
</g>
<!-- n19&#45;&#45;n27 -->
<g id="edge56" class="edge"><title>n19&#45;&#45;n27</title>
<path fill="none" stroke="black" d="M121.784,-410.892C160.256,-430.128 239.79,-469.895 278.243,-489.121"/>
</g>
<!-- n32 -->
<g id="node32" class="node"><title>n32</title>
<ellipse fill="blue" stroke="black" cx="200" cy="-600" rx="27" ry="18"/>
<text text-anchor="middle" x="200" y="-596.3" font-family="Times,serif" font-size="14.00" fill="white">32</text>
</g>
<!-- n19&#45;&#45;n32 -->
<g id="edge55" class="edge"><title>n19&#45;&#45;n32</title>
<path fill="none" stroke="black" d="M108.699,-417.399C127.659,-455.318 172.516,-545.031 191.392,-582.784"/>
</g>
<!-- n20&#45;&#45;n28 -->
<g id="edge59" class="edge"><title>n20&#45;&#45;n28</title>
<path fill="none" stroke="black" d="M221.784,-410.892C260.256,-430.128 339.79,-469.895 378.243,-489.121"/>
</g>
<!-- n31 -->
<g id="node31" class="node"><title>n31</title>
<ellipse fill="blue" stroke="black" cx="100" cy="-600" rx="27" ry="18"/>
<text text-anchor="middle" x="100" y="-596.3" font-family="Times,serif" font-size="14.00" fill="white">31</text>
</g>
<!-- n20&#45;&#45;n31 -->
<g id="edge57" class="edge"><title>n20&#45;&#45;n31</title>
<path fill="none" stroke="black" d="M191.301,-417.399C172.341,-455.318 127.484,-545.031 108.608,-582.784"/>
</g>
<!-- n33 -->
<g id="node33" class="node"><title>n33</title>
<ellipse fill="blue" stroke="black" cx="300" cy="-600" rx="27" ry="18"/>
<text text-anchor="middle" x="300" y="-596.3" font-family="Times,serif" font-size="14.00" fill="white">33</text>
</g>
<!-- n20&#45;&#45;n33 -->
<g id="edge58" class="edge"><title>n20&#45;&#45;n33</title>
<path fill="none" stroke="black" d="M208.699,-417.399C227.659,-455.318 272.516,-545.031 291.392,-582.784"/>
</g>
<!-- n21&#45;&#45;n25 -->
<g id="edge60" class="edge"><title>n21&#45;&#45;n25</title>
<path fill="none" stroke="black" d="M278.216,-410.892C239.744,-430.128 160.21,-469.895 121.757,-489.121"/>
</g>
<!-- n21&#45;&#45;n29 -->
<g id="edge63" class="edge"><title>n21&#45;&#45;n29</title>
<path fill="none" stroke="black" d="M321.784,-410.892C360.256,-430.128 439.79,-469.895 478.243,-489.121"/>
</g>
<!-- n21&#45;&#45;n32 -->
<g id="edge61" class="edge"><title>n21&#45;&#45;n32</title>
<path fill="none" stroke="black" d="M291.301,-417.399C272.341,-455.318 227.484,-545.031 208.608,-582.784"/>
</g>
<!-- n34 -->
<g id="node34" class="node"><title>n34</title>
<ellipse fill="blue" stroke="black" cx="400" cy="-600" rx="27" ry="18"/>
<text text-anchor="middle" x="400" y="-596.3" font-family="Times,serif" font-size="14.00" fill="white">34</text>
</g>
<!-- n21&#45;&#45;n34 -->
<g id="edge62" class="edge"><title>n21&#45;&#45;n34</title>
<path fill="none" stroke="black" d="M308.699,-417.399C327.659,-455.318 372.516,-545.031 391.392,-582.784"/>
</g>
<!-- n22&#45;&#45;n26 -->
<g id="edge64" class="edge"><title>n22&#45;&#45;n26</title>
<path fill="none" stroke="black" d="M378.216,-410.892C339.744,-430.128 260.21,-469.895 221.757,-489.121"/>
</g>
<!-- n22&#45;&#45;n30 -->
<g id="edge67" class="edge"><title>n22&#45;&#45;n30</title>
<path fill="none" stroke="black" d="M421.784,-410.892C460.256,-430.128 539.79,-469.895 578.243,-489.121"/>
</g>
<!-- n22&#45;&#45;n33 -->
<g id="edge65" class="edge"><title>n22&#45;&#45;n33</title>
<path fill="none" stroke="black" d="M391.301,-417.399C372.341,-455.318 327.484,-545.031 308.608,-582.784"/>
</g>
<!-- n35 -->
<g id="node35" class="node"><title>n35</title>
<ellipse fill="blue" stroke="black" cx="500" cy="-600" rx="27" ry="18"/>
<text text-anchor="middle" x="500" y="-596.3" font-family="Times,serif" font-size="14.00" fill="white">35</text>
</g>
<!-- n22&#45;&#45;n35 -->
<g id="edge66" class="edge"><title>n22&#45;&#45;n35</title>
<path fill="none" stroke="black" d="M408.699,-417.399C427.659,-455.318 472.516,-545.031 491.392,-582.784"/>
</g>
<!-- n23&#45;&#45;n27 -->
<g id="edge68" class="edge"><title>n23&#45;&#45;n27</title>
<path fill="none" stroke="black" d="M478.216,-410.892C439.744,-430.128 360.21,-469.895 321.757,-489.121"/>
</g>
<!-- n23&#45;&#45;n34 -->
<g id="edge69" class="edge"><title>n23&#45;&#45;n34</title>
<path fill="none" stroke="black" d="M491.301,-417.399C472.341,-455.318 427.484,-545.031 408.608,-582.784"/>
</g>
<!-- n36 -->
<g id="node36" class="node"><title>n36</title>
<ellipse fill="blue" stroke="black" cx="600" cy="-600" rx="27" ry="18"/>
<text text-anchor="middle" x="600" y="-596.3" font-family="Times,serif" font-size="14.00" fill="white">36</text>
</g>
<!-- n23&#45;&#45;n36 -->
<g id="edge70" class="edge"><title>n23&#45;&#45;n36</title>
<path fill="none" stroke="black" d="M508.699,-417.399C527.659,-455.318 572.516,-545.031 591.392,-582.784"/>
</g>
<!-- n24&#45;&#45;n28 -->
<g id="edge71" class="edge"><title>n24&#45;&#45;n28</title>
<path fill="none" stroke="black" d="M578.216,-410.892C539.744,-430.128 460.21,-469.895 421.757,-489.121"/>
</g>
<!-- n24&#45;&#45;n35 -->
<g id="edge72" class="edge"><title>n24&#45;&#45;n35</title>
<path fill="none" stroke="black" d="M591.301,-417.399C572.341,-455.318 527.484,-545.031 508.608,-582.784"/>
</g>
<!-- n25&#45;&#45;n33 -->
<g id="edge73" class="edge"><title>n25&#45;&#45;n33</title>
<path fill="none" stroke="black" d="M121.784,-510.892C160.256,-530.128 239.79,-569.895 278.243,-589.121"/>
</g>
<!-- n26&#45;&#45;n34 -->
<g id="edge74" class="edge"><title>n26&#45;&#45;n34</title>
<path fill="none" stroke="black" d="M221.784,-510.892C260.256,-530.128 339.79,-569.895 378.243,-589.121"/>
</g>
<!-- n27&#45;&#45;n31 -->
<g id="edge75" class="edge"><title>n27&#45;&#45;n31</title>
<path fill="none" stroke="black" d="M278.216,-510.892C239.744,-530.128 160.21,-569.895 121.757,-589.121"/>
</g>
<!-- n27&#45;&#45;n35 -->
<g id="edge76" class="edge"><title>n27&#45;&#45;n35</title>
<path fill="none" stroke="black" d="M321.784,-510.892C360.256,-530.128 439.79,-569.895 478.243,-589.121"/>
</g>
<!-- n28&#45;&#45;n32 -->
<g id="edge77" class="edge"><title>n28&#45;&#45;n32</title>
<path fill="none" stroke="black" d="M378.216,-510.892C339.744,-530.128 260.21,-569.895 221.757,-589.121"/>
</g>
<!-- n28&#45;&#45;n36 -->
<g id="edge78" class="edge"><title>n28&#45;&#45;n36</title>
<path fill="none" stroke="black" d="M421.784,-510.892C460.256,-530.128 539.79,-569.895 578.243,-589.121"/>
</g>
<!-- n29&#45;&#45;n33 -->
<g id="edge79" class="edge"><title>n29&#45;&#45;n33</title>
<path fill="none" stroke="black" d="M478.216,-510.892C439.744,-530.128 360.21,-569.895 321.757,-589.121"/>
</g>
<!-- n30&#45;&#45;n34 -->
<g id="edge80" class="edge"><title>n30&#45;&#45;n34</title>
<path fill="none" stroke="black" d="M578.216,-510.892C539.744,-530.128 460.21,-569.895 421.757,-589.121"/>
</g>
</g>
</svg>
